<svg id="Base" xmlns="http://www.w3.org/2000/svg" viewBox="0 0 431.209 414"><defs><style>.cls-1{fill:#fff;}</style></defs><title>Logo Perfecto Blanco</title><path class="cls-1" d="M314.353,88.309l-23.216,67.366c1.842.918,3.682,1.926,5.472,3l27.134-65.654Q318.99,90.762,314.353,88.309Z" transform="translate(-57 -45)"/><path class="cls-1" d="M85,165l88,45s2.923-7.035,3-7L85.687,143.345C86,143,85,165,85,165Z" transform="translate(-57 -45)"/><path class="cls-1" d="M341,94l-36.5,70.01c1.691,1.286,3.369,2.658,4.985,4.08L351.4,99.156C348.3,96.9,344.031,96.381,341,94Z" transform="translate(-57 -45)"/><path class="cls-1" d="M291.2,73.81,276.86,150.222c1.945.528,3.9,1.145,5.821,1.833l17.834-71.842Q295.762,77.164,291.2,73.81Z" transform="translate(-57 -45)"/><path class="cls-1" d="M342,202c-.249.189,2,8,2,8l88-45s-8-17-8.259-16.943" transform="translate(-57 -45)"/><path class="cls-1" d="M403.111,130.2c-2.358-1.616-4.76-3.127-7.177-4.6l-66.975,63.737c1.247,1.9,2.455,3.865,3.587,5.852l74.937-61.861C406.035,132.264,404.586,131.207,403.111,130.2Z" transform="translate(-57 -45)"/><path class="cls-1" d="M265.052,60.383l-3.778,86.633.486.033c1.857.129,3.73.33,5.568.6l8.346-83.3A38.681,38.681,0,0,0,265.052,60.383Z" transform="translate(-57 -45)"/><path class="cls-1" d="M365.1,109.8l-49.526,66.214c1.5,1.618,2.961,3.315,4.356,5.046l55.875-65.2C372.213,113.883,368.635,111.886,365.1,109.8Z" transform="translate(-57 -45)"/><path class="cls-1" d="M138.814,115.4l53.7,63.335c1.415-1.737,2.9-3.44,4.412-5.061L150.352,110.8C146.518,112.306,142.653,113.775,138.814,115.4Z" transform="translate(-57 -45)"/><path class="cls-1" d="M116,137l66.851,55.785c1.147-1.989,2.366-3.958,3.624-5.851L126,129" transform="translate(-57 -45)"/><path class="cls-1" d="M173.025,100.18c-1.938,1.311-3.921,2.491-5.936,3.585l37.929,63.046c1.633-1.422,3.323-2.79,5.021-4.068L176.388,97.991C175.26,98.708,174.134,99.429,173.025,100.18Z" transform="translate(-57 -45)"/><path class="cls-1" d="M245.631,63.485c-1.666.763-3.315,1.564-4.955,2.386l7.936,82.441c2-.279,4.033-.478,6.056-.595L251.237,61.35A45.96,45.96,0,0,0,245.631,63.485Z" transform="translate(-57 -45)"/><path class="cls-1" d="M190.373,89.945l27.578,67.5c1.79-1.058,3.63-2.053,5.469-2.959L199.829,85.163C196.657,86.72,193.5,88.3,190.373,89.945Z" transform="translate(-57 -45)"/><path class="cls-1" d="M214.119,79.116,231.914,151.9c1.908-.675,3.86-1.28,5.8-1.8l-14-76.2C220.531,75.679,217.341,77.431,214.119,79.116Z" transform="translate(-57 -45)"/><path class="cls-1" d="M258,251l-87-42c5.212-36.835,43.833-65,87-65s82.788,28.165,88,65Z" transform="translate(-57 -45)"/><polyline class="cls-1" points="25 122 25 307 198 394 198 414 0 313 0 112 201 0 402 112 402 313 204 414 204 394 378 307 378 122 201.018 21.483"/><polygon class="cls-1" points="375 144 229 218 229 198 375 125 375 144"/><polygon class="cls-1" points="198 230 48 155 48 291 198 366 198 386 28 301 28 125 198 210 198 230"/><polygon class="cls-1" points="223 357 375 281 375 301 204 386 204 210 223 201 223 357"/><text x="-57" y="-45"/></svg>